<?xml version="1.0" standalone="no"?>
<!DOCTYPE svg PUBLIC "-//W3C//DTD SVG 20010904//EN"
 "http://www.w3.org/TR/2001/REC-SVG-20010904/DTD/svg10.dtd">
<svg version="1.0" xmlns="http://www.w3.org/2000/svg"
 width="1024.000000pt" height="1024.000000pt" viewBox="0 0 1024.000000 1024.000000"
 preserveAspectRatio="xMidYMid meet">
<metadata>
Created by potrace 1.14, written by Peter Selinger 2001-2017
</metadata>
<g transform="translate(0.000000,1024.000000) scale(0.100000,-0.100000)"
fill="#000000" stroke="none">
<path d="M1595 10233 c-202 -26 -425 -92 -594 -178 -499 -250 -845 -695 -968
-1248 l-28 -122 -3 -3505 c-2 -2539 0 -3531 8 -3600 64 -542 382 -1035 852
-1321 210 -128 431 -207 679 -243 95 -14 484 -16 3579 -16 3755 0 3551 -3
3762 51 720 182 1262 796 1348 1529 8 69 10 1061 8 3600 l-3 3505 -28 122
c-161 720 -699 1251 -1422 1405 l-110 23 -3525 1 c-1939 1 -3538 -1 -3555 -3z
m5095 -3060 c14 -6 46 -17 73 -24 26 -8 47 -17 47 -21 0 -4 7 -8 15 -8 29 0
160 -84 210 -134 17 -17 45 -49 64 -71 18 -22 57 -65 85 -95 28 -30 85 -93
126 -140 41 -47 81 -92 90 -100 8 -8 38 -42 67 -76 28 -34 67 -77 85 -96 18
-19 96 -106 173 -193 77 -87 156 -175 175 -195 19 -21 46 -50 59 -66 28 -33
160 -181 236 -264 27 -30 75 -84 105 -119 30 -35 60 -69 67 -76 7 -7 22 -30
35 -51 19 -34 23 -53 23 -141 0 -68 -4 -106 -13 -115 -6 -6 -12 -20 -12 -30 0
-10 -4 -18 -10 -18 -5 0 -10 -6 -10 -13 0 -7 -8 -22 -18 -33 -9 -10 -29 -35
-44 -55 -14 -19 -44 -55 -67 -80 -22 -24 -41 -47 -41 -50 0 -3 -12 -19 -26
-35 -14 -16 -39 -46 -57 -68 -18 -21 -48 -58 -67 -81 -19 -23 -44 -53 -54 -66
-11 -13 -33 -40 -50 -60 -17 -20 -38 -45 -46 -55 -23 -29 -103 -127 -115 -140
-5 -6 -46 -55 -90 -109 -127 -155 -265 -323 -314 -381 -14 -17 -44 -52 -66
-79 -22 -27 -63 -77 -90 -110 -28 -33 -87 -105 -132 -161 -46 -55 -97 -112
-114 -125 -17 -13 -43 -34 -57 -46 -23 -20 -125 -73 -177 -93 -27 -10 -88 -26
-153 -39 -37 -8 -549 -11 -1660 -11 -1646 0 -1626 0 -1797 35 -54 12 -192 77
-224 106 -11 11 -24 19 -28 19 -5 0 -42 35 -84 78 -115 118 -174 215 -209 342
-7 25 -16 58 -21 74 -5 16 -9 600 -9 1320 1 1378 -1 1338 50 1461 5 11 14 35
22 53 7 17 16 32 20 32 5 0 8 5 8 11 0 19 80 127 136 183 58 58 143 120 204
148 66 31 189 67 245 71 22 2 798 4 1725 3 1268 -1 1691 -4 1710 -13z"/>
<path d="M5825 5883 c-107 -104 -347 -338 -534 -521 l-339 -332 -223 231
c-220 227 -329 329 -352 329 -14 0 -287 -247 -287 -260 0 -13 848 -824 866
-828 21 -5 -30 -54 1147 1098 87 85 164 158 171 162 14 8 42 66 35 72 -2 1
-61 55 -131 119 -69 64 -133 117 -142 117 -9 0 -104 -84 -211 -187z"/>
</g>
</svg>
